<svg xmlns="http://www.w3.org/2000/svg" viewBox="0 0 176 146">
  <!-- Dizzy: X-eyes, antenna mid-wobble (slight tilt), stars orbiting the
       head. Robot shifted +18y; antenna group pivots at stem base (80,62). -->
  <g transform="rotate(6 80 62)">
    <circle cx="80" cy="31.5" r="13" fill="#1890ff" opacity="0.22"/>
    <circle cx="80" cy="31.5" r="8.5" fill="#1890ff"/>
    <rect x="76.5" y="38" width="7" height="24" rx="3" fill="#555555"/>
  </g>
  <rect x="28" y="64.5" width="104" height="73" rx="17.5" fill="#ffffff" stroke="#555555" stroke-width="5"/>
  <!-- X-eyes -->
  <g stroke="#1890ff" stroke-width="5" stroke-linecap="round">
    <path d="M 54.5 94 L 68.5 108"/>
    <path d="M 68.5 94 L 54.5 108"/>
    <path d="M 91.5 94 L 105.5 108"/>
    <path d="M 105.5 94 L 91.5 108"/>
  </g>
  <!-- Orbiting stars: three beads on one ellipse arcing over the crown
       (center ~80,52), graduated in size to imply spin around the head. -->
  <path d="M 0 -9 Q 2 -2 9 0 Q 2 2 0 9 Q -2 2 -9 0 Q -2 -2 0 -9 Z" transform="translate(32 40) scale(0.55)" fill="#40a9ff"/>
  <path d="M 0 -9 Q 2 -2 9 0 Q 2 2 0 9 Q -2 2 -9 0 Q -2 -2 0 -9 Z" transform="translate(120 26) scale(0.8)" fill="#1890ff"/>
  <path d="M 0 -9 Q 2 -2 9 0 Q 2 2 0 9 Q -2 2 -9 0 Q -2 -2 0 -9 Z" transform="translate(154 56) scale(0.6)" fill="#40a9ff"/>
</svg>
