<svg xmlns="http://www.w3.org/2000/svg" viewBox="0 0 192 136">
  <!-- Glitched: mismatched eye sizes, antenna tip morphed into a jagged
       spark (first robot-set tip morph), stars orbiting the crown (dizzy's
       motif, at the same head-relative positions). Robot shifted +8y. -->
  <circle cx="80" cy="20" r="13" fill="#1890ff" opacity="0.22"/>
  <!-- spark bolt replaces the ball -->
  <polygon points="84,6 73,22 79,22 76,34 87,17 81,17" fill="#1890ff"/>
  <rect x="76.5" y="28" width="7" height="24" rx="3" fill="#555555"/>
  <rect x="28" y="54.5" width="104" height="73" rx="17.5" fill="#ffffff" stroke="#555555" stroke-width="5"/>
  <!-- mismatched eyes -->
  <circle cx="61.5" cy="91" r="5.5" fill="#1890ff"/>
  <circle cx="98.5" cy="91" r="11" fill="#1890ff"/>
  <!-- orbiting stars (dizzy positions shifted -10y for this pose's layout) -->
  <path d="M 0 -9 Q 2 -2 9 0 Q 2 2 0 9 Q -2 2 -9 0 Q -2 -2 0 -9 Z" transform="translate(32 30) scale(0.55)" fill="#40a9ff"/>
  <path d="M 0 -9 Q 2 -2 9 0 Q 2 2 0 9 Q -2 2 -9 0 Q -2 -2 0 -9 Z" transform="translate(120 16) scale(0.8)" fill="#1890ff"/>
  <path d="M 0 -9 Q 2 -2 9 0 Q 2 2 0 9 Q -2 2 -9 0 Q -2 -2 0 -9 Z" transform="translate(154 46) scale(0.6)" fill="#40a9ff"/>
</svg>
